<?xml version="1.0" standalone="no"?>
<!DOCTYPE svg PUBLIC "-//W3C//DTD SVG 1.1//EN" "http://www.w3.org/Graphics/SVG/1.1/DTD/svg11.dtd" >
<!--
2013-9-30: Created.
-->
<svg>
<metadata>
Created by iconfont
</metadata>
<defs>

<font id="iconfont" horiz-adv-x="1024" >
  <font-face
    font-family="iconfont"
    font-weight="500"
    font-stretch="normal"
    units-per-em="1024"
    ascent="896"
    descent="-128"
  />
    <missing-glyph />
    
    <glyph glyph-name="back" unicode="&#58976;" d="M363.840919 423.021263C336.938714 398.641139 337.301807 358.513862 364.730379 334.513862L673.951902 63.945029999999974C682.818816 56.18648099999996 696.296418 57.08498799999995 704.05497 65.95190200000002 711.813519 74.81881599999997 710.915012 88.29641800000002 702.048098 96.05497000000003L392.826577 366.62380199999996C384.59578 373.825747 384.502227 384.164713 392.492414 391.40582L702.325747 672.192277C711.056111 680.104171 711.719614 693.595384 703.807723 702.325748 695.895829 711.056111 682.404617 711.719614 673.674253 703.807722L363.840919 423.021263Z"  horiz-adv-x="1024" />

    
    <glyph glyph-name="ico-right-arrow" unicode="&#58988;" d="M283.648 46.081l57.225-59.008 399.479 396.929-399.476 396.924-57.228-59.004 335.872-337.92z"  horiz-adv-x="1024" />

    
    <glyph glyph-name="aui-icon-location" unicode="&#58904;" d="M517.276 630.547q-50.909 0-88-36.364-36.364-37.091-36.364-88.727 0-50.909 36.364-87.273 37.091-36.364 88-36.364 50.909 0 88 36.364 36.364 36.364 36.364 87.273 0 51.636-36.364 88.727-37.091 36.364-88 36.364zM517.276 413.093q-37.818 0-65.455 27.636-27.636 26.909-27.636 64.727 0 38.545 27.636 66.182 27.636 27.636 65.455 27.636 37.818 0 65.455-27.636 27.636-27.636 27.636-65.455 0-39.273-27.636-66.182-26.909-26.909-65.455-26.909zM517.276 768.002q-75.636 0-139.636-34.909-64.727-35.636-102.545-96-37.091-60.364-37.091-130.909 0-42.909 12.364-78.545 0 0 0-0.727 8.727-26.909 26.182-53.818 76.364-114.182 228.364-342.545 3.636-7.273 12.364-7.273 7.273 0 12.364 7.273 76.364 114.182 228.364 341.818 16.727 24.727 26.182 54.545 0 0 0 0.727 12.364 35.636 12.364 78.545 0 70.545-37.818 130.909-37.091 60.364-101.818 95.273-64 35.636-139.636 35.636zM755.822 439.274q-10.182-28.364-24-48.727-69.091-104.727-208-314.182-4.364-3.636-6.545-3.636-4.364 0-6.545 3.636-69.091 104-208 312.727-14.545 21.818-22.545 47.273-10.909 35.636-10.909 69.818 0 62.545 33.455 116.364 32.727 53.091 90.182 83.636 57.455 30.545 124.364 30.545 66.909 0 124.364-30.545 57.455-30.545 90.182-83.636 33.455-53.818 33.455-116.364 0-33.455-9.455-66.909z"  horiz-adv-x="1024" />

    
    <glyph glyph-name="location" unicode="&#58945;" d="M698.981 714.673c-136.411 141.544-357.561 141.544-493.973 0-136.411-141.566-136.411-371.102 0-512.646l246.986-254.871 246.986 254.871c136.411 141.544 136.411 371.080 0 512.646zM451.995 362.156c-60.288 0.012-109.155 48.888-109.155 109.177 0 0.015 0 0.031 0 0.046-0 0.004-0 0.012-0 0.019 0 60.294 48.865 109.174 109.153 109.199 60.293-0.025 109.158-48.905 109.158-109.199 0-0.008-0-0.015-0-0.023 0-0.005 0-0.013 0-0.021 0-60.294-48.865-109.174-109.153-109.199z"  horiz-adv-x="1024" />

    
    <glyph glyph-name="edit" unicode="&#58913;" d="M745.016889 581.688889l-120.661333 120.661333 60.302222 60.302222a28.444444 28.444444 0 0 0 40.277333 0l80.440889-80.384a28.444444 28.444444 0 0 0 0-40.220444l-60.302222-60.359111z m-40.220445-40.220445L356.181333 192.853333a56.888889 56.888889 0 0 0-32.199111-16.099555l-122.026666-17.464889 17.464888 122.026667a56.888889 56.888889 0 0 0 16.099556 32.199111l348.615111 348.615111 120.661333-120.661334zM483.555556 213.333333h227.555555a28.444444 28.444444 0 1 0 0-56.888889h-227.555555a28.444444 28.444444 0 1 0 0 56.888889z m-227.555556-113.777777h512a28.444444 28.444444 0 1 0 0-56.888889h-512a28.444444 28.444444 0 1 0 0 56.888889z"  horiz-adv-x="1024" />

    
    <glyph glyph-name="windows8" unicode="&#59009;" d="M44.223 792.062v0 0zM430.913 221.654v-369.116l-386.691 53.296v315.821h386.691zM430.913 642.939v-373.657h-386.691v320.361zM987.715 221.654v-445.654l-514.27 70.87v374.784h514.27zM987.715 719.493v-450.195h-514.27v379.325z"  horiz-adv-x="1024" />

    
    <glyph glyph-name="windows9" unicode="&#60975;" d="M526.8 27 960.8-43.8 960.8 356.8 526.8 356.8ZM526.8 757.8 526.8 429.1 960.8 429.1 960.8 829.9ZM68.1 429.2 435 429.2 435 745.9 68.1 685ZM68.1 98.7 435 38.9 435 356.8 68.1 356.8Z"  horiz-adv-x="1024" />

    
    <glyph glyph-name="windows10" unicode="&#59068;" d="M0.24 412.224h412.944V807.344L0.24 747.52v-335.296zM469.648 815.536v-403.312h554.096V895.76L469.648 815.536zM0.24 20.464l412.944-59.808V355.744H0.24v-335.28z m469.408-68l554.096-80.224V355.744H469.648v-403.28z"  horiz-adv-x="1024" />

    
    <glyph glyph-name="windows11" unicode="&#58881;" d="M0 12.914721999999983l419.694251-57.842781V355.68643699999996H0zM0 407.384123h419.694251V812.921592L0 755.078812zM465.848203-51.08608600000002l558.151797-76.913914V355.692904H465.848203zM465.854669 819.077465v-411.693342h558.145331V896z"  horiz-adv-x="1024" />

    
    <glyph glyph-name="windows13" unicode="&#58951;" d="M64 708.6l367.2 50.6v-354.8H64V708.6z m0-649.2l367.2-50.6V359.2H64v-299.8z m407.6-56L960-64V359.2H471.6v-355.8z m0 761.2v-360.2H960V832L471.6 764.6z"  horiz-adv-x="1024" />

    
    <glyph glyph-name="windows14" unicode="&#59955;" d="M64 708.6l367.2 50.6v-354.8H64V708.6z m0-649.2l367.2-50.6V359.2H64v-299.8z m407.6-56L960-64V359.2H471.6v-355.8z m0 761.2v-360.2H960V832L471.6 764.6z"  horiz-adv-x="1024" />

    
    <glyph glyph-name="windows1" unicode="&#59393;" d="M426.276571 237.133714l0-372.004571-389.705143 53.723429 0 318.281143 389.705143 0zM426.276571 661.728l0-376.576-389.705143 0 0 322.852571zM987.428571 237.133714l0-449.133714-518.290286 71.424 0 377.709714 518.290286 0zM987.428571 738.857143l0-453.705143-518.290286 0 0 382.281143z"  horiz-adv-x="1024" />

    
    <glyph glyph-name="windows2" unicode="&#59103;" d="M117.1456 584.0576l322.7648 44.032 0.2048-311.296-322.56-1.8432L117.1456 584.0576zM439.7056 280.7488l0.2048-311.7056L117.3504 13.4848l0 269.312L439.7056 280.7488zM478.8224 633.6192l428.032 62.464L906.8544 320.48l-428.032-3.4816L478.8224 633.6192zM906.8544 277.6768l0-373.9648-428.032 60.416-0.6144 314.1632L906.8544 277.6768z"  horiz-adv-x="1024" />

    
    <glyph glyph-name="windows3" unicode="&#59544;" d="M426.285714 321.142857l0-372-389.714286 53.714286 0 318.285714 389.714286 0zm0 424.571429l0-376.571429-389.714286 0 0 322.857143zm561.142857-424.571429l0-449.142857-518.285714 71.428571 0 377.714286 518.285714 0zm0 501.714286l0-453.714286-518.285714 0 0 382.285714z"  horiz-adv-x="1024" />

    
    <glyph glyph-name="windows4" unicode="&#59787;" d="M64 708.6l367.2 50.6v-354.8H64V708.6z m0-649.2l367.2-50.6V359.2H64v-299.8z m407.6-56L960-64V359.2H471.6v-355.8z m0 761.2v-360.2H960V832L471.6 764.6z"  horiz-adv-x="1024" />

    
    <glyph glyph-name="windows5" unicode="&#58960;" d="M978.773333 414.464H433.92V815.36L978.773333 896v-481.536zM395.562667 809.642667v-395.178667H0V751.061333l395.605333 58.581334zM0 359.466667h395.605333v-400.128L0 18.602667v340.864z m433.962667-405.888v405.888H978.773333V-128l-544.768 81.578667z"  horiz-adv-x="1024" />

    
    <glyph glyph-name="windows6" unicode="&#59315;" d="M512 768v-352h448V832zM512 0l448-64V352H512zM64 64l384-54.9V352H64zM64 416h384V758.9L64 704z"  horiz-adv-x="1024" />

    
    <glyph glyph-name="windows7" unicode="&#59271;" d="M64 708.6l367.2 50.6v-354.8H64V708.6z m0-649.2l367.2-50.6V359.2H64v-299.8z m407.6-56L960-64V359.2H471.6v-355.8z m0 761.2v-360.2H960V832L471.6 764.6z"  horiz-adv-x="1024" />

    
    <glyph glyph-name="weixintubiao-" unicode="&#58883;" d="M512 827.072c-282.752 0-512-182.656-512-407.936 0-121.664 66.944-230.72 172.992-305.536l-12.608-172.672 173.44 95.744A627.328 627.328 0 0 1 512 11.264c282.752 0 512 182.656 512 407.872 0 225.28-229.248 407.936-512 407.936z"  horiz-adv-x="1024" />

    
    <glyph glyph-name="weixintubiao-1" unicode="&#58888;" d="M150.208-70.848l14.208 194.24C59.776 201.344 0 311.104 0 426.304 0 653.824 229.696 838.848 512 838.848s512-185.088 512-412.544-229.696-412.48-512-412.48a622.4 622.4 0 0 0-167.488 22.592l-194.304-107.264zM512 793.344C254.784 793.344 45.504 628.736 45.504 426.368c0-103.936 56.704-203.648 155.648-273.344l10.56-7.424-9.984-136 137.344 75.776 9.152-2.688c52.416-15.488 107.52-23.36 163.776-23.36 257.216 0 466.496 164.608 466.496 366.976S769.216 793.344 512 793.344z"  horiz-adv-x="1024" />

    
    <glyph glyph-name="faqiqunliao1" unicode="&#59038;" d="M25.2928 327.8016c0 224.3328 223.0528 407.168 473.5744 407.168 265.2672 0 474.1888-182.8352 474.1888-407.168 0-224.7168-208.9216-407.168-474.1888-407.168-55.5008 0-111.5136 14.08-167.2704 28.1856l-152.9344-84.2752 41.9328 140.2112C108.672 89.2096 25.2928 201.2608 25.2928 327.8016"  horiz-adv-x="1024" />

    
    <glyph glyph-name="windows" unicode="&#58903;" d="M425.645237 320.634969 36.977169 320.634969 36.977169 642.625428l388.668067 53.570079L425.645237 320.634969zM425.645237-98.238027l-388.668067 53.570079L36.977169 272.763682l388.668067 0L425.645237-98.238027zM985.282187 320.634969 468.38669 320.634969 468.38669 701.895323 985.282187 773.131761 985.282187 320.634969zM985.282187-175.17428l-516.895497 71.236438L468.38669 272.763682l516.895497 0L985.282187-175.17428z"  horiz-adv-x="1024" />

    
    <glyph glyph-name="wo2" unicode="&#58887;" d="M933.6-128h-844.169l-5.681 3.287c-3.338 1.928-33.062 19.284-47.557 31.331-23.879 19.809-36.735 47.642-36.164 78.354l0.108 8.235c0.156 16.501 0.32 33.574 4.93 50.977 10.823 40.996 41.227 67.566 71.439 91.302 39.55 31.096 86.287 57.475 151.523 85.521 31.067 13.355 64.274 26.165 101.518 39.090 15.966 5.547 32.637 22.906 42.473 44.191 7.78 16.832 10.086 33.617 6.321 45.43l-1.818 2.143c-44.304 53.722-79.529 101.396-96.209 184.145-13.412 66.473-11.486 129.28 5.716 186.666 26.36 87.988 83.281 145.186 164.581 165.422 12.272 3.059 24.199 5.215 36.018 6.477v1.357l49.759 0.072v-1.428c11.806-1.262 23.759-3.418 36.041-6.489 81.287-20.224 138.196-77.422 164.571-165.408 17.177-57.377 19.102-120.172 5.724-186.656-16.727-82.769-51.94-130.447-96.23-184.155l-1.618-1.907c-0.072-0.069-0.118-0.143-0.166-0.215-3.778-11.927-1.472-28.666 6.297-45.451 9.838-21.306 26.493-38.642 42.461-44.163 37.14-12.93 70.333-25.715 101.534-39.119 65.221-28.047 111.935-54.426 151.523-85.521 28.869-22.689 60.59-50.307 71.426-91.327 4.585-17.333 4.751-34.378 4.918-50.855l0.12-8.333c0.568-30.712-12.285-58.545-36.19-78.377-14.494-12.024-44.173-29.38-47.522-31.308l-5.681-3.288zM511.415 847.168h-0.32c-15.91-0.084-31.841-2.176-48.722-6.392-64.642-16.082-108.29-60.534-129.748-132.124-15.076-50.32-16.586-103.638-4.621-162.981 13.353-66.189 37.327-103.697 86.036-162.766 3.031-3.512 6.692-7.762 9.042-13.806 9.421-24.355 6.902-55.429-6.902-85.309-15.585-33.709-42.010-59.781-70.689-69.755-36.129-12.549-68.265-24.931-98.265-37.833-61.207-26.306-104.596-50.711-140.7-79.091-24.698-19.381-47.44-38.976-54.426-65.426-3.051-11.502-3.172-24.831-3.302-38.95l-0.108-8.642c-0.297-16.046 5.942-29.475 18.557-39.929 7.961-6.62 24.995-17.213 35.309-23.4h817.901c10.314 6.187 27.373 16.806 35.286 23.377 12.641 10.475 18.89 23.905 18.58 39.926l-0.12 8.76c-0.115 14.072-0.259 27.384-3.3 38.833-6.986 26.475-29.726 46.070-54.415 65.451-36.116 28.38-79.503 52.785-140.689 79.091-30.102 12.951-62.254 25.333-98.275 37.854-28.677 9.953-55.102 36.025-70.689 69.734-13.803 29.88-16.325 60.954-6.912 85.283 2.281 6.011 6.011 10.296 8.22 12.856 49.518 60.035 73.515 97.553 86.87 163.742 11.952 59.356 10.455 112.675-4.634 162.981-21.457 71.59-65.083 116.042-129.712 132.114-16.893 4.226-32.836 6.318-48.745 6.402l-0.508-0z"  horiz-adv-x="1024" />

    
    <glyph glyph-name="faxian" unicode="&#58882;" d="M874.048 746.048c-199.936 199.936-524.16 199.936-724.096 0s-199.936-524.16 0-724.096 524.16-199.936 724.096 0 199.936 524.16 0 724.096zM184.64 56.64c-180.8 180.8-180.8 473.92 0 654.72s473.92 180.8 654.72 0 180.8-473.92 0-654.784-473.92-180.736-654.72 0.064zM437.376 463.296l-187.008-345.664 339.072 193.6 193.6 339.072-345.664-187.008zM516.672 350.464c-18.56 0-33.536 14.976-33.536 33.536 0 18.496 15.040 33.536 33.536 33.536 18.496 0 33.536-15.040 33.536-33.536-0-18.56-15.040-33.536-33.536-33.536z"  horiz-adv-x="1024" />

    
    <glyph glyph-name="wo" unicode="&#58902;" d="M920.84-111.984H103.168l-5.504 3.184c-3.232 1.864-32.024 18.68-46.064 30.352-23.136 19.184-35.584 46.152-35.024 75.904l0.104 7.976c0.152 15.984 0.304 32.512 4.776 49.384 10.488 39.712 39.928 65.448 69.192 88.448 38.312 30.128 83.576 55.672 146.776 82.84 30.088 12.936 62.256 25.344 98.336 37.864 15.464 5.376 31.616 22.184 41.136 42.808 7.536 16.312 9.768 32.568 6.12 44.008l-1.76 2.088c-42.912 52.032-77.032 98.216-93.192 178.376-12.992 64.384-11.128 125.232 5.536 180.824C319.136 797.32 374.264 852.72 453.016 872.328a254.52 254.52 0 0 0 34.88 6.272v1.312l48.192 0.072v-1.384c11.448-1.216 23.024-3.312 34.92-6.28 78.728-19.592 133.848-75 159.4-160.24 16.632-55.584 18.504-116.416 5.536-180.816-16.192-80.184-50.312-126.368-93.2-178.392l-1.56-1.848c-0.08-0.064-0.128-0.144-0.168-0.208-3.664-11.544-1.424-27.768 6.096-44.032 9.536-20.64 25.656-37.432 41.128-42.784 35.984-12.512 68.136-24.904 98.36-37.888 63.176-27.168 108.424-52.72 146.76-82.84 27.976-21.984 58.704-48.736 69.184-88.472 4.44-16.8 4.6-33.312 4.776-49.272l0.12-8.064c0.544-29.76-11.912-56.72-35.056-75.928-14.048-11.648-42.792-28.464-46.032-30.328l-5.512-3.192z"  horiz-adv-x="1024" />

    
    <glyph glyph-name="Mac" unicode="&#58944;" d="M908.8 144H131.2C94.4 144 64 174.4 64 211.2V700.8C64 737.6 94.4 768 131.2 768h777.6c36.8 0 67.2-30.4 67.2-67.2v-489.6c0-36.8-30.4-67.2-67.2-67.2zM131.2 736C112 736 96 720 96 700.8v-489.6C96 192 112 176 131.2 176h777.6c19.2 0 35.2 16 35.2 35.2V700.8c0 19.2-16 35.2-35.2 35.2H131.2zM419.2-16c-4.8 0-9.6 0-12.8 1.6-11.2 3.2-19.2 11.2-25.6 20.8-4.8 9.6-6.4 22.4-3.2 33.6l24 73.6c3.2 8 11.2 12.8 20.8 9.6 8-3.2 12.8-11.2 9.6-20.8l-24-73.6c-1.6-3.2 0-6.4 0-8s3.2-4.8 6.4-4.8H603.2c6.4 0 11.2 4.8 11.2 11.2v3.2L592 105.6c-3.2 8 1.6 17.6 11.2 19.2 8 3.2 17.6-1.6 19.2-11.2l22.4-75.2c1.6-3.2 1.6-8 1.6-11.2 0-24-19.2-43.2-43.2-43.2H419.2zM944 304H80c-9.6 0-16 6.4-16 16s6.4 16 16 16h864c9.6 0 16-6.4 16-16s-6.4-16-16-16zM513.6 200c-20.8 0-36.8 16-36.8 36.8s16 36.8 36.8 36.8c20.8 0 36.8-16 36.8-36.8s-16-36.8-36.8-36.8z m0 41.6c-3.2 0-4.8-1.6-4.8-4.8s1.6-4.8 4.8-4.8 4.8 1.6 4.8 4.8-1.6 4.8-4.8 4.8z"  horiz-adv-x="1024" />

    
    <glyph glyph-name="bangzhuyufankuiwenhao" unicode="&#58941;" d="M482.7 268.2h57.2V211h-57.2zM525.2 557c-66 0-129-32.2-129-115.8h57.2c0 27.8 17.6 58.6 57.2 58.6 23.5 0 57.2-8.8 57.2-44 0-32.2-10.3-38.1-41-61.6-30.8-20.5-45.4-46.9-44-80.6V296h58.6c0 52.8 36.6 58.6 66 101.1 14.7 22 20.5 42.5 20.5 68.9-0.1 45.5-41.1 91-102.7 91M772.9 794H251.1C168.7 794 102 727.3 102 644.9v-521.8c0-82.3 66.7-149.1 149.1-149.1h521.8c82.3 0 149.1 66.7 149.1 149.1V644.9c0 82.4-66.7 149.1-149.1 149.1M512 123.1c-143.6 0-260.9 117.3-260.9 260.9S368.4 644.9 512 644.9 772.9 527.6 772.9 384 655.6 123.1 512 123.1"  horiz-adv-x="1024" />

    
    <glyph glyph-name="tongxunlu" unicode="&#58966;" d="M739.10385778 525.32224h245.06709333c19.24892445 0 33.74535111-9.7792 33.74535111-30.42872889 0-20.65635555-16.73898667-30.43555555-35.98791111-30.43555556h-242.82453333c-19.25802667 0-34.88085333 9.7792-34.88085333 30.43555556 0 20.65066667 15.62282667 30.42872889 34.88085333 30.42872889zM1017.27459555 355.44177778000005c0-20.65180445-14.50552889-30.43783111-33.74876444-30.43783111H791.06958222c-19.25802667 0-34.88085333 9.78261333-34.88085333 30.43783111 0 20.65066667 15.62282667 30.42759111 34.88085333 30.42759111h193.57354667c19.24664889 0 32.63146667-9.77692445 32.63146666-30.42759111zM840.64369778 39.95192888999998c0-45.26535111-36.76046222-72.95886222-81.94958223-72.95886222H84.91008c-45.18229333 0-81.94730667 27.69009778-81.94730667 72.95886222v19.66990222c0 41.47655111 30.53795555 78.24384 69.51822222 92.23395556l166.84714667 74.37084444s45.22666667 13.90136889 57.60682667 27.77543111c8.23751111 9.24103111 10.77930667 39.71072 0.33792 59.71171556-10.43911111 19.99872-94.97941333 130.03662222-94.97941334 222.33315555 0 148.84636445 97.83864889 269.51338667 218.52273778 269.51338667 120.68864 0 218.51932445-120.66702222 218.51932445-269.51338667 0-96.36522667-94.86791111-202.45048889-102.66624-228.55452444-7.80401778-26.10517333-8.43434667-46.53852445 0.38001777-55.20952889 13.71022222-13.47470222 48.99612445-27.17923555 48.99612445-27.17923555l185.08231111-72.12487112c38.98368-13.99694222 69.51936-51.88494222 69.51936-93.36149333l-0.00341333-19.66535111zM984.08448 193.64977778000002H855.44163555c-19.25233778 0-34.87630222 9.7792-34.87630222 30.43896889 0 20.64725333 15.62396445 30.42759111 34.87630222 30.42759111h129.76355556c19.25233778 0 33.73169778-9.7792 33.73169778-30.42759111 0-20.65521778-15.60120889-30.43783111-34.85240889-30.43783112z"  horiz-adv-x="1024" />

    
    <glyph glyph-name="shoufukuan1" unicode="&#58922;" d="M59.1 771.9h220v-76H134.8c-20.4 0-37.1-16.7-37.1-37.1v-164.7H14.5V727.3c0 24.5 20.1 44.6 44.6 44.6zM347 409l-30.4-54.7L444.4 192l288.9 335.6-29.4 32.4-254.5-236.2L347 409z m390.3 362.9h220c24.5 0 44.6-20.1 44.6-44.6v-233.2h-83.1V658.8c0 20.4-16.7 37.1-37.1 37.1H737.3v76z m264.6-486.6v-233.2c0-24.5-20.1-44.6-44.6-44.6h-220v76h144.4c20.4 0 37.1 16.7 37.1 37.1V285.3h83.1zM279.1 7.5h-220c-24.5 0-44.6 20.1-44.6 44.6V285.3h83.1v-164.7c0-20.4 16.7-37.1 37.1-37.1h144.4v-76z"  horiz-adv-x="1024" />

    
    <glyph glyph-name="miandarao" unicode="&#59221;" d="M198.912 225.024L110.08 134.528v-45.184h563.456L213.12 545.408c-9.216-28.16-14.208-58.112-14.208-89.344v-231.04zM566.016 35.712H405.12c0-45.312 35.072-80.512 80.512-80.512s80.384 35.072 80.384 80.512zM822.784 107.648h38.784v44.032l-86.4 88.064V464.768c0 135.296-96.64 248.576-222.592 278.528V771.712c0 31.488-17.408 59.776-47.488 66.048-43.52 10.24-79.232-22.784-79.232-65.28v-29.952c-59.264-13.696-112-46.08-151.296-90.496L92.288 833.28 56.32 797.44l875.008-869.12 35.968 35.712-144.512 143.616z"  horiz-adv-x="1024" />

    
    <glyph glyph-name="ziyuan" unicode="&#58993;" d="M423.686244 404.629854l-118.284488-221.333854 226.528781 116.636098a157.346341 157.346341 0 0 1 17.782634 10.789463L436.673561 425.059902a157.895805 157.895805 0 0 1-12.987317-20.430048zM472.788293 459.626146l112.889756-114.188487a157.346341 157.346341 0 0 1 11.938341 18.531902l120.881951 220.834341-227.028292-114.038634a157.646049 157.646049 0 0 1-18.681756-11.139122zM512 896A512 512 0 1 1 1024 384 512.599415 512.599415 0 0 1 512 896z m273.682732-292.414439l-144.259122-263.592585a205.749073 205.749073 0 0 0-86.615415-84.467513L284.971707 116.760976a34.965854 34.965854 0 0 0-46.554536 47.303804L379.629268 428.156878A205.449366 205.449366 0 0 0 469.041951 515.371707L739.627707 651.239024a34.965854 34.965854 0 0 0 46.104976-47.753365z"  horiz-adv-x="1024" />

    
    <glyph glyph-name="shoufukuan" unicode="&#58880;" d="M102.07999999999998 725.8666666666667h-68.26666666666667v-0.2144h-0.32v-68.26666666666667h0.32v-136.96h68.26666666666667v136.96h136.85333333333335v68.26666666666667h-136.85333333333335zM922.2410666666667 725.8666666666667v-0.2144h-137.27999999999997v-68.26666666666667h137.27999999999997v-136.96h68.26666666666667v205.44106666666667zM102.07999999999998 248h-68.26666666666667v-136.96h-0.32v-68.26666666666667h0.32v-0.32h68.26666666666667v0.32h136.85333333333335v68.26666666666667h-136.85333333333335zM922.2410666666667 111.03999999999996h-137.27999999999997v-68.26666666666667h137.27999999999997v-0.32h68.26666666666667v205.54666666666665h-68.26666666666667zM785.2810666666667 570.88l-340.9066666666667-255.14666666666665-153.81439999999998 112.10666666666665-25.6-25.493333333333332 179.4144-221.01333333333332 365.22666666666663 365.22666666666663z"  horiz-adv-x="1024" />

    
    <glyph glyph-name="icon" unicode="&#58936;" d="M815.663044 114.06922099999997c-44.225247 92.710518-362.246301 85.757153-241.070474 226.907916 39.671535 46.6249 81.499176 109.61042 81.499176 177.099511 0 121.955586-81.158415 221.082234-180.976818 221.082234-99.722212 0-181.076078-99.126648-181.076078-221.082234 0-67.490114 25.568329-112.74276 76.650751-175.924755C454.934307 217.800747 179.477674 208.69229900000005 137.846508 119.99314100000004c-12.341073-26.348088-14.499226-46.774303-14.304797-70.328765 0-3.038196-0.289596-6.170536 1.226944-8.667404 1.517563-2.451842 3.869121-3.968381 6.418176-3.968381l686.876889 0c2.449795 0 4.848425 1.517563 6.317892 3.968381 1.517563 2.496867 1.224898 5.582135 1.224898 8.667404C826.098721 76.01348700000005 822.569338 99.62116100000003 815.663044 114.06922099999997zM937.190889 404.581758l-91.044576 0 0 91.033319c0 12.592806-10.223852 22.772656-22.760376 22.772656-12.570293 0-22.760376-10.17985-22.760376-22.772656l0-91.033319-91.045599 0c-12.580526 0-22.772656-10.17985-22.772656-22.782889 0-12.536524 10.19213-22.762423 22.772656-22.762423l91.045599 0 0-91.044576c0-12.558014 10.190083-22.738887 22.760376-22.738887 12.536524 0 22.760376 10.17985 22.760376 22.738887l0 91.044576 91.044576 0c12.580526 0 22.760376 10.224876 22.760376 22.762423C959.952288 394.400884 949.771415 404.581758 937.190889 404.581758z"  horiz-adv-x="1024" />

    
    <glyph glyph-name="icon-scan" unicode="&#58932;" d="M75.575 671.852S53.469 818.28 263.443 822.425c209.975 4.145 232.073-178.198 232.073-178.198H672.34s41.434-8.289 40.059-58.022c-1.385-49.73-34.538-48.346-34.538-48.346l-413.036-0.006s-49.73 1.385-51.111-56.635c-1.38-58.02 9.684-145.024-59.399-145.047-46.97-0.017-48.35 56.644-48.35 56.644l-30.39 279.037zM946.596 98.606s22.106-146.431-187.867-150.575c-209.977-4.145-232.075 178.2-232.075 178.2H349.831s-41.437 8.289-40.057 58.02c1.38 49.73 34.534 48.355 34.534 48.355h413.035s49.727-1.385 51.111 56.635c1.385 58.02-9.68 145.023 59.403 145.046 46.963 0.017 48.346-56.635 48.346-56.635l30.393-279.046z"  horiz-adv-x="1024" />

    
    <glyph glyph-name="add" unicode="&#58898;" d="M515.863273-128c-282.321455 0-512 229.678545-512 512 0 282.298182 229.678545 512 512 512s512-229.701818 512-512C1027.863273 101.678545 798.184727-128 515.863273-128zM515.863273 851.479273C258.094545 851.479273 48.384 641.768727 48.384 384s209.710545-467.502545 467.479273-467.502545S983.342545 126.231273 983.342545 384 773.632 851.479273 515.863273 851.479273zM750.126545 364.450909c-4.026182-4.002909-9.565091-6.516364-15.732364-6.516364L298.449455 357.934545c-12.311273 0-22.272 9.960727-22.272 22.272 0 12.288 9.960727 22.248727 22.248727 22.248727l435.968 0c12.334545 0.023273 22.295273-9.937455 22.272-22.248727C756.689455 374.039273 754.176 368.477091 750.126545 364.450909zM531.595636 144.872727c-4.026182-4.026182-9.611636-6.516364-15.732364-6.493091-12.334545-0.023273-22.295273 9.960727-22.272 22.248727l-0.023273 446.72c0 12.288 9.960727 22.248727 22.272 22.248727 12.311273 0 22.272-9.960727 22.248727-22.248727l0-446.72C538.088727 154.484364 535.621818 148.875636 531.595636 144.872727z"  horiz-adv-x="1028" />

    


  </font>
</defs>
</svg>
